<svg width="96" height="96" xmlns="http://www.w3.org/2000/svg" xmlns:xlink="http://www.w3.org/1999/xlink" xml:space="preserve" overflow="hidden"><g transform="translate(-354 -22)"><path d="M399.5 42C384 42 371.5 54.5 371.5 70 371.5 74.9 372.8 79.5 375 83.5 377.1 81.3 379.4 79.1 381.9 76.7 388.2 70.8 395.6 64.8 401.8 60.4 402.2 60.1 402.6 59.9 403.1 59.9 404.2 59.9 405.1 60.8 405.1 61.9 405.1 62.6 404.8 63.1 404.3 63.5L404.3 63.5C395.4 69.9 383.6 79.8 375.6 88.8 375.6 88.8 374.5 90 374 90.6L374 90.6C369.5 95.9 366.5 100.7 366.5 104.1L372.5 104.1C372.5 101.9 376 97.1 381.3 91.4 386.2 95.6 392.5 98.1 399.5 98.1 404.5 98.1 409.3 96.8 413.4 94.4L413.4 94.4C434.8 82.5 437.5 60.6 437.5 36 437.5 36 414.2 42.4 399.5 42Z"/></g></svg>